<svg viewBox="0 0 1795 454" fill="none" xmlns="http://www.w3.org/2000/svg">
<path fill-rule="evenodd" clip-rule="evenodd" d="M738.621 15.8917C743.084 15.8371 747.021 15.8374 750.558 15.8556C765.232 15.8738 772.143 15.8918 781.069 10.7821L790.012 5.65039L788.307 15.8556L776.37 86.3956L776.086 88.0843L774.8 89.2394L774.582 89.4415L774.49 89.5143C768.338 94.7768 753.562 95.1152 732.539 95.5429L731.573 95.5556H731.428L730.6 95.5412C727.705 95.4866 724.81 95.4141 721.796 95.3213C701.922 94.7554 676.369 94.0238 660.771 102.356C654.504 105.708 649.212 110.252 644.671 115.747C643.408 117.27 642.201 118.875 641.013 120.547C641.839 120.18 642.662 119.829 643.464 119.49C649.636 116.908 655.945 115.025 662.338 113.849C695.063 107.813 729.231 120.264 755.886 150.039L755.868 150.042L755.904 150.061C757.109 151.411 758.354 152.885 759.64 154.463C760.867 155.988 762.033 157.494 763.097 158.955C765.288 161.949 767.277 164.997 769.108 168.112L769.126 167.985C769.663 162.753 770.185 157.19 770.689 151.265C771.313 143.511 771.775 138.022 771.672 133.926C771.581 130.132 770.99 127.269 769.645 124.309L766.491 117.368H774.085H848.097H850.526L851.996 119.332C856.76 125.708 857.137 131.493 856.435 141.172L857.683 140.173C861.242 137.336 864.896 134.665 868.634 132.197L868.639 132.184C887.992 119.357 909.196 111.729 929.859 111.729H929.895V111.744C938.48 111.753 946.474 112.639 953.909 114.315C960.065 115.694 965.792 117.59 971.076 119.936C995.26 130.669 1011.48 150.931 1019.98 175.598C1020.4 174.98 1020.86 174.381 1021.29 173.795C1027.82 164.986 1035.25 156.861 1043.48 149.684V149.682L1043.49 149.664L1043.6 149.591C1047.34 146.323 1051.26 143.233 1055.32 140.324C1059.37 137.412 1063.56 134.695 1067.86 132.186C1090.06 119.246 1115.48 111.74 1141.73 111.74H1141.78V111.754C1160.11 111.764 1177.13 115.416 1192.21 122.008C1194.77 123.117 1197.17 124.272 1199.44 125.453C1211.57 131.789 1222.26 140.121 1231.12 150.042L1231.13 150.046L1231.14 150.065C1232.34 151.404 1233.6 152.869 1234.86 154.437C1236.09 155.955 1237.23 157.441 1238.3 158.897C1240.63 162.074 1242.74 165.315 1244.67 168.627C1246.09 156.622 1247.02 146.363 1247.22 138.635C1247.4 131.251 1247.09 126.554 1246.16 125.466L1239.24 117.378H1249.88L1282.86 117.372V117.354H1329.45H1334.34H1392.84V117.372L1397.77 117.227H1397.79C1411.58 116.808 1417.14 116.632 1424.5 112.486L1433.23 107.538L1431.72 117.498L1428 142.151C1428.65 141.603 1429.29 141.066 1429.91 140.542C1433.43 137.616 1437.04 134.875 1440.76 132.364C1460.04 119.333 1482.17 111.764 1505.06 111.764L1505.07 111.746H1505.08V111.76C1520.22 111.769 1534.33 115.081 1546.93 121.079C1548.88 122.009 1550.89 123.068 1552.96 124.247C1559.57 127.997 1565.7 132.516 1571.29 137.705C1571.22 136.195 1571.09 134.792 1570.95 133.485C1570.47 129.511 1569.66 126.51 1568.7 124.17L1565.89 117.361H1573.2H1654.27H1659.93L1659.11 122.996L1659.1 123.069L1659.08 123.106L1658.03 129.806C1653.93 156.233 1640.2 244.33 1633.02 304.046L1633 304.137C1632.44 308.81 1631.64 314.954 1630.93 320.507C1628.1 342.227 1626.35 355.718 1629.81 362.025L1633.79 369.304H1625.51H1553.73H1551.38L1549.89 367.418C1547.32 364.154 1546.07 358.88 1545.77 351.876C1545.66 348.626 1545.7 344.931 1545.9 340.825L1544.41 342.065C1540.81 345.015 1537.07 347.81 1533.23 350.426C1513.46 363.903 1491.65 371.95 1470.46 371.95C1453.98 371.95 1439.59 368.673 1427.29 362.844C1409.08 354.23 1395.53 340.096 1386.56 322.756C1377.68 305.609 1373.3 285.336 1373.3 264.19C1373.3 243.322 1377.58 221.536 1386.06 201.055L1322.91 201.052L1320.44 216.528C1314.59 252.868 1308.62 290.049 1305.2 325.236L1305.21 325.255L1304.74 329.978C1303.03 347.354 1302.02 357.457 1304.34 361.375L1308.7 368.79H1300.14H1226.53H1223.54L1222.17 366.105C1219.96 361.747 1219.13 355.991 1219.25 348.148C1219.36 341.046 1220.22 332.25 1221.46 321.139C1217.41 325.684 1213.06 329.989 1208.48 333.989L1208.5 333.994L1208.48 334.013L1208.39 334.086C1204.63 337.35 1200.71 340.453 1196.67 343.355C1192.63 346.265 1188.43 348.985 1184.13 351.491C1161.96 364.42 1136.53 371.924 1110.24 371.924V371.939H1110.22V371.924C1090.75 371.917 1072.73 367.794 1056.98 360.398C1054.31 359.146 1051.79 357.849 1049.42 356.521C1036.82 349.429 1025.86 340.12 1017.02 329.081L1017.02 329.063L1017 329.045V329.054C1015.92 327.711 1014.81 326.256 1013.66 324.669C1012.58 323.184 1011.55 321.694 1010.57 320.194C1007.47 315.463 1004.78 310.597 1002.5 305.655C1002.07 306.361 1001.62 307.096 1001.14 307.84C995.253 317.119 988.395 325.868 980.535 333.815L980.539 333.833V333.847L980.521 333.842C977.251 337.15 973.87 340.258 970.412 343.15C966.895 346.066 963.277 348.803 959.558 351.32C940.284 364.354 918.171 371.922 895.278 371.922L895.281 371.937H895.245V371.922C879.872 371.915 865.557 368.505 852.791 362.309C850.804 361.339 848.752 360.251 846.681 359.057C839.389 354.836 832.693 349.673 826.663 343.714C824.976 354.626 823.367 365.524 821.941 376.393C820.09 390.458 818.503 404.702 817.295 419.192C816.654 426.919 816.31 432.805 816.452 437.211C816.598 441.143 817.115 443.895 818.179 445.829L822.183 453.109H813.903H738.812H736.561L735.091 451.397C733.04 449.013 731.992 444.533 731.731 438.357C731.511 433.018 731.804 426.167 732.476 418.153C734.086 398.996 736.414 379.871 739.169 360.788C740.999 347.923 743.028 335.11 745.157 322.33C741.4 326.432 737.438 330.335 733.258 333.978L733.26 333.983L733.244 334.002L733.134 334.074C729.4 337.339 725.474 340.441 721.438 343.344C717.38 346.254 713.196 348.974 708.893 351.48C686.685 364.418 661.255 371.927 635.006 371.927H634.97V371.913C615.512 371.906 597.501 367.783 581.722 360.387C579.049 359.135 576.534 357.838 574.187 356.509C561.586 349.418 550.627 340.109 541.762 329.07L541.765 329.065L541.747 329.047C541.007 328.104 540.175 327.043 539.313 325.873C538.51 324.787 537.722 323.713 536.978 322.649C533.122 317.086 529.863 311.329 527.172 305.429C526.853 304.749 526.549 304.066 526.267 303.393C525.465 304.603 524.679 305.762 523.936 306.841C516.943 316.8 508.74 325.977 499.574 333.971V333.976L499.556 333.994L499.447 334.067C495.713 337.332 491.788 340.434 487.75 343.337C483.688 346.246 479.505 348.967 475.205 351.473C452.998 364.411 427.568 371.92 401.32 371.92H401.284V371.906C381.826 371.899 363.815 367.775 348.036 360.38C345.387 359.128 342.85 357.831 340.499 356.502C327.9 349.411 316.942 340.101 308.078 329.063L308.06 329.026V329.032C306.695 327.322 305.365 325.569 304.098 323.79C302.777 321.941 301.587 320.158 300.499 318.46L300.501 318.441C296.621 312.269 293.444 305.895 290.913 299.371L290.749 299.626L290.731 299.663C266.449 334.879 238.388 354.221 207.031 364.311C175.94 374.31 141.826 375.117 104.925 373.309L104.304 373.272C89.9942 372.572 75.6805 371.889 61.7708 372.155C57.0505 372.246 52.7253 372.119 48.6474 371.991C37.5328 371.662 28.325 371.391 19.6414 376.193L10.8398 381.07L12.4647 371.102L24.227 299.357L24.5075 297.654L25.7556 296.513L26.1379 296.178L26.1923 296.141C36.7065 286.777 55.5949 287.298 67.7158 287.623L68.8204 287.66C78.6721 287.916 88.4602 288.781 98.2264 289.665L99.0963 283.862L100.601 273.568C103.112 256.074 105.483 238.749 107.35 223.096L107.368 223.005C107.953 218.206 108.733 212.201 109.438 206.648C112.278 184.921 114.02 171.426 110.584 165.119L106.588 157.831H114.866H186.647H188.998L190.485 159.719C193.802 163.943 194.901 171.679 194.621 182.318C194.386 192.135 193.072 204.571 191.365 219.074C190.121 229.734 188.55 241.356 186.759 253.574C185.338 263.369 183.708 273.868 181.957 284.781C188.534 282.19 194.721 278.712 200.429 274.494C216.453 262.659 228.733 245.137 235.704 225.734C242.682 206.351 244.307 185.157 239.041 165.974C236.592 157.05 232.63 148.548 227.002 140.871C222.402 134.582 216.67 129.437 210.159 125.366C193.516 114.979 171.687 111.541 149.878 113.714C127.915 115.912 106.042 123.803 89.4773 136.029C81.3997 141.998 74.6033 149.007 69.7411 156.872L69.7267 156.89L69.6903 156.944L69.0078 158.12L68.9895 158.117C68.7911 158.484 68.5673 158.895 68.3453 159.325C67.3208 161.343 66.4966 163.475 66.0926 165.577L66.0762 165.65L64.8681 171.538L62.395 183.479L55.948 173.167L12.3301 103.513L11.4421 102.101L11.5695 100.512C12.2119 92.8625 15.9859 86.472 20.9537 81.0311C25.5775 75.9706 31.1438 71.8307 36.006 68.2859L36.0971 68.2315C69.7503 44.7048 107.29 31.9488 143.872 29.1156C174.668 26.7263 204.775 31.3774 231.329 42.5467C258.02 53.7741 281.092 71.5831 297.618 95.4501C310.364 113.854 319.202 135.84 322.823 161.159C326.504 157.132 330.44 153.303 334.6 149.673L334.602 149.671L334.62 149.653L334.693 149.58C338.45 146.312 342.368 143.222 346.41 140.312C350.469 137.401 354.647 134.685 358.949 132.175C381.16 119.236 406.587 111.729 432.839 111.729H432.876V111.744C451.209 111.753 468.23 115.405 483.306 121.997C485.841 123.106 488.272 124.261 490.542 125.442C502.666 131.778 513.353 140.111 522.219 150.032V150.035L522.237 150.05C523.059 150.971 524.022 152.106 525.148 153.462C526.158 154.694 527.079 155.844 527.901 156.91C529.776 159.361 531.519 161.849 533.148 164.382C534.174 160.029 535.238 155.797 536.303 151.662C538.434 143.472 540.603 135.767 542.856 128.62C547.123 115.052 552.181 101.615 558.774 88.9229C565.452 76.1487 573.628 64.2444 584.101 53.9086C596.589 41.5984 611.258 32.3417 628.041 26.0347C644.689 19.7768 663.375 16.4431 684.058 15.93C693.103 15.708 702.229 15.6295 711.375 15.6368C720.479 15.6459 729.562 15.7645 738.63 15.8956L738.621 15.8917ZM845.431 231.938C844.468 237.973 843.582 243.501 842.736 248.495C842.738 249.02 842.736 249.732 842.736 250.624C842.738 263.565 846.776 274.977 853.669 283.203C860.405 291.266 869.953 296.327 881.088 296.766C881.35 296.775 881.89 296.784 882.693 296.784L882.765 296.782V296.797C886.366 296.793 889.922 296.311 893.42 295.416C896.903 294.515 900.333 293.175 903.67 291.452C920.979 282.492 934.563 263.376 937.358 241.241C937.702 238.567 937.864 235.841 937.864 233.088C937.864 220.816 934.222 209.923 927.97 201.807C921.847 193.852 913.178 188.536 902.967 187.224C901.424 187.026 899.73 186.926 897.903 186.926H897.867V186.908C893.325 186.908 888.799 187.677 884.438 189.095C881.588 190.012 878.791 191.237 876.058 192.712C861.988 200.339 850.471 214.725 845.424 231.938H845.431ZM432.721 187.198C431.176 187.004 429.484 186.893 427.651 186.893C408.865 186.893 390.91 199.711 380.802 218.259C378.857 221.862 377.161 225.741 375.836 229.823C374.491 233.897 373.523 238.092 372.981 242.343L372.963 242.433C372.639 245.112 372.458 247.836 372.458 250.589C372.458 262.863 376.116 273.755 382.368 281.871C388.501 289.825 397.161 295.135 407.353 296.447C408.899 296.64 410.588 296.749 412.417 296.749C431.216 296.749 449.16 283.942 459.27 265.394C461.224 261.784 462.908 257.912 464.256 253.825C465.583 249.743 466.545 245.549 467.091 241.305L467.109 241.214C467.451 238.532 467.612 235.812 467.612 233.049C467.615 220.785 463.97 209.892 457.72 201.776C451.591 193.828 442.928 188.512 432.717 187.198H432.721ZM1141.64 187.198C1140.09 187.004 1138.41 186.893 1136.58 186.893C1117.79 186.893 1099.83 199.711 1089.74 218.259C1087.78 221.862 1086.08 225.741 1084.76 229.823C1083.43 233.897 1082.44 238.092 1081.9 242.343L1081.91 242.433C1081.56 245.106 1081.4 247.836 1081.4 250.584C1081.4 262.863 1085.04 273.755 1091.29 281.871C1097.43 289.825 1106.08 295.135 1116.3 296.447C1117.85 296.64 1119.53 296.749 1121.36 296.749C1140.15 296.749 1158.1 283.942 1168.19 265.394C1170.16 261.784 1171.83 257.912 1173.18 253.825C1174.5 249.743 1175.49 245.549 1176.03 241.305V241.214C1176.38 238.539 1176.54 235.812 1176.54 233.057C1176.54 220.785 1172.89 209.892 1166.64 201.776C1160.52 193.821 1151.85 188.512 1141.64 187.198ZM1522.7 187.198C1521.13 187.004 1519.44 186.893 1517.63 186.893C1498.84 186.893 1480.87 199.711 1470.78 218.259C1468.81 221.862 1467.14 225.741 1465.79 229.823C1464.47 233.897 1463.5 238.092 1462.96 242.343L1462.94 242.433C1462.6 245.112 1462.43 247.836 1462.43 250.589C1462.44 262.865 1466.07 273.755 1472.33 281.871C1478.45 289.825 1487.12 295.135 1497.33 296.447C1498.88 296.64 1500.56 296.749 1502.39 296.749C1521.19 296.749 1539.13 283.942 1549.22 265.394C1551.2 261.784 1552.86 257.906 1554.21 253.825C1555.56 249.743 1556.52 245.549 1557.06 241.305L1557.07 241.214C1557.41 238.539 1557.59 235.812 1557.59 233.057C1557.59 220.785 1553.93 209.892 1547.68 201.776C1541.55 193.821 1532.88 188.512 1522.69 187.198H1522.7ZM664.612 187.198C663.068 187.004 661.355 186.893 659.525 186.893C640.733 186.893 622.783 199.711 612.693 218.259C610.724 221.862 609.056 225.741 607.707 229.823C606.383 233.897 605.415 238.092 604.854 242.343V242.433C604.514 245.112 604.353 247.836 604.353 250.589C604.353 262.863 607.987 273.755 614.24 281.871C620.374 289.825 629.032 295.135 639.246 296.447C640.791 296.64 642.479 296.749 644.31 296.749C663.107 296.749 681.052 283.942 691.142 265.394C693.116 261.784 694.779 257.912 696.128 253.825C697.458 249.743 698.437 245.549 698.981 241.305L698.986 241.214C699.326 238.532 699.481 235.812 699.481 233.049C699.485 220.785 695.847 209.892 689.595 201.776C683.466 193.828 674.803 188.512 664.611 187.198H664.612Z" fill="#1B1918"/>
<path fill-rule="evenodd" clip-rule="evenodd" d="M834.959 69.1579H848.506L856.506 43.051L864.783 70.1769H868.783L885.408 43.051L885.39 69.1579H898.939L897.772 19.7246H887.764L870.093 48.7175L861.313 19.7246H851.321L834.959 69.1579Z" fill="#1B1918"/>
<path fill-rule="evenodd" clip-rule="evenodd" d="M945.09 53.7291C942.275 57.616 938.013 60.0631 932.905 60.0631C927.685 60.0631 925.046 57.5049 923.922 55.505C922.699 53.3942 922.375 50.2898 922.835 47.3929H958.84L959.003 46.2811C959.81 41.0604 960.308 33.5102 956.148 27.3979C953.411 23.4 948.347 19.5117 938.559 19.5117C932.793 19.5081 925.938 20.7309 919.423 26.29C915.444 29.7292 910.66 35.6194 909.173 45.1782C908.029 52.7263 909.3 58.9517 913.857 63.9504C917.92 68.5014 923.485 70.7448 931.26 70.7448C948.047 70.743 955.24 59.2842 957.213 55.7249L945.09 53.7291ZM924.609 38.7331C926.715 32.2878 932.425 29.065 937.409 29.065C942.439 29.0613 947.279 32.1768 947.377 38.7331H924.609Z" fill="#1B1918"/>
<path fill-rule="evenodd" clip-rule="evenodd" d="M1004.76 32.6313L1006.55 21.0762H966.332L964.541 32.6313H977.888L972.258 69.1794H985.809L991.436 32.6313H1004.76Z" fill="#1B1918"/>
<path fill-rule="evenodd" clip-rule="evenodd" d="M1013.63 21.0762L1006.23 69.1794H1019.8L1046.57 39.519L1042.01 69.1794H1055.57L1062.96 21.0762H1049.4L1022.61 50.741L1027.17 21.0762H1013.63Z" fill="#1B1918"/>
<path fill-rule="evenodd" clip-rule="evenodd" d="M1078.77 33.9507C1082.02 31.5087 1085.67 30.1734 1090 30.1734C1095.57 30.1734 1096.99 32.5094 1096.59 35.0625C1096.43 36.0633 1096.01 37.3991 1094.42 38.4C1092.95 39.2843 1090.68 39.5117 1088.91 39.5117L1083.46 39.5084L1081.96 49.2799H1087.63C1089.84 49.2799 1091.83 49.4073 1093.25 50.1734C1095 51.1706 1095.42 52.7262 1095.2 54.1728C1094.86 56.3928 1092.83 59.6139 1085.94 59.6139C1082.28 59.6139 1077.16 58.1727 1073.84 54.506L1065.9 62.7253C1071.33 69.4091 1079.56 70.7448 1085.33 70.7448C1090.44 70.743 1097.17 69.6331 1101.76 66.5032C1104.59 64.6126 1108.15 61.0567 1109.03 55.3956C1109.66 51.285 1108.53 48.3934 1106.72 46.5082C1105.28 45.0598 1103.12 43.841 1100.87 43.2824C1103.29 42.0632 1108.19 39.0644 1109.13 32.9539C1109.96 27.6204 1107.44 24.3996 1105.25 22.7309C1102.08 20.2871 1097.09 19.5117 1092.97 19.5117C1086.32 19.5081 1080.07 21.069 1073.84 25.5109L1078.77 33.9507Z" fill="#1B1918"/>
<path fill-rule="evenodd" clip-rule="evenodd" d="M1117.37 69.1794H1130.91L1133.91 49.6287H1152.8L1149.79 69.1794H1163.36L1170.76 21.0762H1157.18L1154.57 38.0724H1135.7L1138.31 21.0762H1124.74L1117.37 69.1794Z" fill="#1B1918"/>
<path fill-rule="evenodd" clip-rule="evenodd" d="M1219.53 27.2851C1216.07 20.1793 1208.93 19.5117 1205.28 19.5117C1191.07 19.5081 1179.67 30.8444 1177.46 45.0616C1175.29 59.1696 1183.31 70.7448 1198.08 70.7448C1201.55 70.743 1208.09 69.9716 1214.04 62.953L1213.1 69.1688H1226.65L1234.04 21.0655H1220.5L1219.53 27.2851ZM1206.87 31.5089C1214.65 31.5089 1219.31 37.3989 1218.12 45.0616C1216.96 52.7261 1210.46 58.7292 1202.69 58.7292C1194.93 58.7292 1190.28 52.7261 1191.47 45.0616C1192.64 37.3989 1199.11 31.5089 1206.86 31.5089H1206.87Z" fill="#1B1918"/>
<path fill-rule="evenodd" clip-rule="evenodd" d="M1235.33 69.1794H1250.88L1265.26 52.2931H1266.8L1264.21 69.1794H1277.78L1285.17 21.0762H1266.06C1261.5 21.0762 1255.91 21.3 1250.54 25.0795C1247.43 27.2959 1243.83 31.1844 1242.92 37.1839C1242.14 42.1826 1243.53 45.5201 1245.13 47.4035C1247.67 50.4078 1251.54 51.0737 1252.33 51.1847L1235.33 69.1794ZM1268.31 42.5139H1262.42C1260.97 42.5139 1259.32 42.4051 1258.06 41.3005C1256.79 40.1832 1256.65 38.8528 1256.89 37.2933C1257.14 35.7411 1257.8 34.2946 1259.32 33.0773C1260.97 31.738 1262.52 31.7417 1264.09 31.7417L1269.98 31.7378L1268.31 42.5139Z" fill="#1B1918"/>
<path fill-rule="evenodd" clip-rule="evenodd" d="M1335.59 69.1443H1349.14L1354.74 32.5923H1371.85L1373.63 21.041H1342.97L1335.59 69.1443Z" fill="#1B1918"/>
<path fill-rule="evenodd" clip-rule="evenodd" d="M1391.49 62.9107C1395.61 70.153 1402.53 70.7135 1405.64 70.7135C1419.87 70.7117 1431.33 59.6934 1433.58 45.0303C1435.81 30.4765 1428.05 19.4766 1413.84 19.4766C1409.72 19.4766 1402.79 20.5882 1396.98 27.2555L1397.95 21.0342H1384.38L1373.04 94.9317H1386.59L1391.49 62.9107ZM1408.31 31.4771C1416.09 31.4771 1420.76 37.3622 1419.57 45.0303C1418.4 52.6967 1411.91 58.6924 1404.13 58.6924C1396.36 58.6924 1391.73 52.6967 1392.92 45.0303C1394.09 37.3585 1400.54 31.4771 1408.31 31.4771Z" fill="#1B1918"/>
<path fill-rule="evenodd" clip-rule="evenodd" d="M1432.93 94.9385H1448.27L1498.4 21.041H1483.06L1465.53 48.3746L1454.84 21.041H1439.06L1455.67 61.9256L1432.93 94.9385Z" fill="#1B1918"/>
<path fill-rule="evenodd" clip-rule="evenodd" d="M1505.03 21.041L1497.65 69.1443H1511.21L1516.81 32.5923H1535.26L1529.64 69.1443H1543.2L1550.58 21.041H1505.03Z" fill="#1B1918"/>
<path fill-rule="evenodd" clip-rule="evenodd" d="M1563.45 21.041L1556.08 69.1443H1569.62L1575.23 32.5923H1593.69L1588.08 69.1443H1601.62L1609.02 21.041H1563.45Z" fill="#1B1918"/>
<path fill-rule="evenodd" clip-rule="evenodd" d="M1656.63 27.2555C1653.17 20.1478 1646.05 19.4766 1642.39 19.4766C1628.16 19.4766 1616.77 30.8095 1614.57 45.0303C1612.41 59.1384 1620.42 70.7135 1635.2 70.7135C1638.63 70.7117 1645.21 69.9345 1651.16 62.9123L1650.2 69.1375H1663.76L1671.14 21.0342H1657.59L1656.63 27.2555ZM1643.98 31.4771C1651.76 31.4771 1656.4 37.3622 1655.23 45.0303C1654.05 52.6967 1647.58 58.6924 1639.8 58.6924C1632.03 58.6924 1627.4 52.6967 1628.56 45.0303C1629.75 37.3585 1636.2 31.4771 1643.98 31.4771H1643.98Z" fill="#1B1918"/>
<path fill-rule="evenodd" clip-rule="evenodd" d="M725.434 5.76148C749.874 5.43212 758.154 7.04218 770.513 0L758.516 70.5406C753.833 74.9369 739.218 75.1932 718.295 75.6118C697.074 75.3042 664.509 72.571 644.949 82.9687C631.203 90.2729 621.817 102.782 614.438 118.434C654.342 91.1192 703.581 98.7324 739.14 138.278C748.027 148.181 754.598 158.957 759.058 170.223C760.448 159.052 761.631 147.857 762.555 136.635C763.865 120.973 764.404 114.464 761.089 107.236L835.421 107.232C840.607 114.138 839.297 121.078 837.97 136.882L837.898 137.765C861.461 115.736 890.137 101.611 917.552 101.611C967.079 101.611 996.405 132.068 1006.37 171.972C1014.17 159.407 1023.86 147.957 1035.02 138.278C1061.11 115.626 1094.97 101.611 1130.41 101.611C1165.87 101.611 1196.18 115.626 1216.54 138.278C1225.39 148.111 1231.89 158.801 1236.38 169.981C1237.04 165.519 1237.7 161.157 1238.35 156.901C1241.62 130.439 1242.61 111.402 1239.03 107.236C1250.07 107.233 1261.12 107.231 1272.17 107.231H1318.95V107.232H1382.65C1401.22 106.608 1407.53 106.959 1416.83 101.717L1410.94 140.591C1411.69 139.816 1412.41 139.037 1413.18 138.278C1435.65 115.628 1464.83 101.611 1495.36 101.611C1524.27 101.611 1549.21 114.167 1566.68 134.728C1567.54 120.925 1566.09 112.703 1563.82 107.236L1645.25 107.232C1643.5 118.604 1627.08 221.785 1619.02 288.424C1615.08 320.971 1611.2 339.941 1616.37 349.352H1544.25C1540.47 344.57 1540.51 332.033 1542.18 314.023C1518.26 337.086 1488.77 351.995 1460.59 351.995C1372.51 351.995 1348.27 255.621 1383.39 181.103L1308.19 181.099C1301.42 223.625 1293.78 267.987 1289.7 309.74C1287.63 331.059 1286.1 343.113 1289.5 348.839H1215.57C1211.9 341.628 1212.84 328.696 1215.48 305.607C1216.09 300.327 1216.77 294.933 1217.53 289.466C1210.79 298.967 1202.92 307.707 1194.14 315.332C1168.03 337.985 1134.16 351.995 1098.74 351.995C1061.08 351.995 1029.2 336.178 1008.92 310.982C1000.94 301.096 995.127 290.469 991.268 279.454C984.357 292.438 975.591 304.626 964.979 315.332C942.493 337.981 913.302 351.995 882.791 351.995C853.427 351.995 828.141 339.035 810.632 317.89C806.011 346.412 801.97 375.006 799.557 403.772C798.254 419.439 798.11 427.888 801.025 433.169H725.61C723.017 430.158 722.815 419.327 724.144 403.534C727.381 365.315 733.449 327.48 739.96 289.72C733.253 299.127 725.43 307.776 716.725 315.332C690.641 337.985 656.768 351.995 621.333 351.995C583.688 351.995 551.805 336.178 531.505 310.982C525.72 303.789 521.076 296.219 517.477 288.38C515.793 284.717 514.381 281.033 513.193 277.346C504.997 291.583 494.401 304.559 482 315.332C455.895 337.985 422.041 351.995 386.607 351.995C348.943 351.995 317.06 336.178 296.778 310.982C287.274 299.191 280.861 286.359 277.102 273.062C275.317 276.052 273.444 278.987 271.473 281.864C224.061 350.286 162.232 356.969 89.1084 353.392C74.4799 352.677 59.8422 351.965 45.4321 352.24C27.2844 352.597 14.0753 349.589 0.847979 356.884L12.6506 285.138C21.9746 276.418 41.0085 277.242 52.5053 277.551C63.8074 277.844 75.0585 278.947 86.3151 279.948C90.0181 255.538 93.5684 230.407 96.2015 208.663C100.147 176.117 104.022 157.148 98.8562 147.735L170.978 147.731C176.046 154.156 174.251 174.588 170.832 203.503C168.341 224.597 164.562 249.801 160.282 276.052L160.136 276.971C220.478 260.323 253.317 174.424 215.469 122.951C179.092 73.4809 79.7733 90.3037 49.3427 139.257C47.3993 142.405 45.7251 145.99 45.0209 149.651L43.82 155.532L0 85.8714C1.04814 73.119 13.1017 64.0588 22.5095 57.2422C135.792 -21.5883 293.679 23.3032 304.089 157.951C309.74 150.83 316.027 144.223 322.861 138.278C348.952 115.626 382.822 101.611 418.257 101.611C453.711 101.611 484.024 115.626 504.386 138.278C511.282 145.955 516.783 154.158 520.987 162.705C524.826 145.504 528.884 129.529 533.466 115.063C541.915 88.3004 553.368 62.2972 573.649 42.379C597.728 18.714 630.288 6.79477 670.729 5.79758C688.92 5.34812 707.17 5.46851 725.423 5.76148H725.434ZM827.964 215.818C827.036 221.53 826.112 227.239 825.167 232.943C823.983 263.112 843.177 286.666 870.17 286.666C898.974 286.662 925.748 259.862 929.966 226.822C934.186 193.773 914.268 166.971 885.468 166.971C859.941 166.967 836.001 188.021 827.96 215.818H827.964ZM413.085 166.938C441.883 166.938 461.802 193.744 457.56 226.788C453.362 259.837 426.567 286.643 397.783 286.643C368.985 286.639 349.061 259.837 353.283 226.788C357.488 193.744 384.277 166.942 413.078 166.942L413.085 166.938ZM1125.22 166.938C1154.02 166.938 1173.94 193.744 1169.7 226.788C1165.5 259.837 1138.7 286.643 1109.92 286.643C1081.12 286.639 1061.18 259.837 1065.42 226.788C1069.62 193.744 1096.41 166.942 1125.22 166.942V166.938ZM1507.98 166.938C1536.76 166.938 1556.7 193.744 1552.46 226.788C1548.26 259.837 1521.47 286.643 1492.68 286.643C1463.88 286.639 1443.94 259.837 1448.18 226.788C1452.39 193.744 1479.18 166.942 1507.98 166.942V166.938ZM645.999 166.938C674.805 166.938 694.739 193.744 690.498 226.788C686.3 259.837 659.503 286.643 630.699 286.643C601.919 286.639 581.977 259.837 586.219 226.788C590.422 193.744 617.214 166.942 645.997 166.942L645.999 166.938Z" fill="#FEC300"/>
<path fill-rule="evenodd" clip-rule="evenodd" d="M1735.67 33.5156C1703.07 33.5156 1676.78 59.7994 1676.78 92.4227C1676.78 125.039 1703.07 151.641 1735.67 151.641C1768.3 151.641 1794.9 125.039 1794.9 92.4227C1794.91 59.7994 1768.29 33.5156 1735.67 33.5156ZM1735.67 43.6442C1762.6 43.6442 1784.45 65.5005 1784.45 92.4227C1784.45 119.336 1762.6 141.188 1735.67 141.188C1708.76 141.188 1686.91 119.336 1686.91 92.4227C1686.91 65.4968 1708.76 43.6442 1735.67 43.6442ZM1710.97 59.4787V125.039H1726.51V100.651H1732.84C1744.86 100.651 1747.08 103.186 1747.39 115.853C1747.71 120.923 1747.71 122.189 1748.97 125.039H1764.19C1762.93 121.874 1762.6 120.926 1762.6 116.171C1762.28 101.918 1760.07 97.8053 1751.51 94.3225C1759.75 91.471 1763.55 87.0379 1763.55 78.7984C1763.55 62.0173 1747.71 59.4787 1734.4 59.4787H1710.97ZM1726.51 88.6176V71.5181H1733.78C1743.91 71.5181 1748.03 74.0529 1748.03 80.0706C1748.03 86.4013 1743.91 88.6176 1733.78 88.6176H1726.51Z" fill="#1B1918"/>
</svg>
