<?xml version="1.0" encoding="utf-8"?>
<!-- Generator: Adobe Illustrator 21.0.0, SVG Export Plug-In . SVG Version: 6.00 Build 0)  -->
<svg version="1.1" id="Слой_1" xmlns="http://www.w3.org/2000/svg" xmlns:xlink="http://www.w3.org/1999/xlink" x="0px" y="0px"
	 viewBox="0 0 581 180.7" style="enable-background:new 0 0 581 180.7;" xml:space="preserve">
<style type="text/css">
	.st0{fill:#939394;}
	.st1{fill:#FFFFFF;}
	.st2{fill:#312A20;}
</style>
<g>
	<path class="st0" d="M29.8,55.5h-7.2L29.8,28h26.5v31.8L70.3,28h31L78.1,69.7l27,46.5H71.8L56.4,85.5v30.6H29.8V55.5z"/>
	<path class="st0" d="M121.9,55.2h-7.3l7.3-27.6h26.8v18.9l4.4-18.9c7.2,0,13.5,1.6,18.9,5c5.4,3.3,9.6,7.6,12.5,13
		c2.9,5.4,4.3,11,4.3,16.7c0,5.6-1.3,11.1-3.9,16.6c-2.6,5.4-6.8,9.9-12.8,13.6c-6,3.6-13.8,5.3-23.4,5.1v18.6h-26.8V55.2z
		 M148.7,70.1c0.6,0.1,1.5,0.1,2.9,0.1c3.1,0,5-0.2,5.7-0.6c3.2-1.1,4.8-3.4,4.8-7c0-3.3-1.6-5.7-4.8-7.1c-1.1-0.4-3.1-0.6-5.7-0.6
		c-1.4,0-2.4,0.1-2.9,0.2V70.1z"/>
	<path class="st0" d="M244.1,25.2c7.7,0,15.2,1.8,22.4,5.4c7.2,3.6,13.1,9,17.7,16.2c4.6,7.2,6.9,15.6,6.9,25.3
		c-0.1,9-2.2,17-6.4,24c-4.2,7-9.9,12.5-17.2,16.5c-7.3,4-15.1,5.9-23.4,5.6c-8-0.2-15.6-2.2-22.7-5.8c-7.2-3.6-12.9-8.9-17.2-15.9
		c-4.3-7-6.5-15.1-6.5-24.4c-0.1-9.7,2.1-18.1,6.7-25.3c4.5-7.2,10.3-12.6,17.5-16.2C228.9,27,236.4,25.2,244.1,25.2z M244.1,52.8
		c-5.1,0-9.6,1.8-13.5,5.5c-3.9,3.7-5.8,8.3-5.8,13.8c0,5.5,2,10.2,5.9,13.9c3.9,3.7,8.4,5.6,13.4,5.6c5.1,0,9.5-1.9,13.4-5.6
		c3.9-3.7,5.9-8.3,5.9-13.9c0-5.5-1.9-10.1-5.8-13.8C253.8,54.6,249.3,52.8,244.1,52.8z"/>
	<path class="st0" d="M309.4,55.5h-7.1l7.1-27.5h27v19.2L342,28h3.1c0.9-0.2,2.4-0.4,4.5-0.4c7.2,0.2,13.4,2.1,18.8,5.9
		c5.3,3.8,8,9.4,8,16.8c0.1,9.4-4.5,16.1-13.8,20.3c4.8,1,8.8,3.2,12,6.7c3.2,3.5,4.6,8.2,4.4,14.2c-0.3,6.6-2,11.7-5,15.3
		c-3,3.6-7,6-12,7.3c-5,1.3-10.9,2-17.7,2h-34.8V55.5z M336.4,63.5c4,0.2,7.1,0,9.3-0.6c2.2-0.6,3.3-2.1,3.3-4.5
		c0-0.6-0.2-1.2-0.6-2c-0.4-0.7-1.1-1.4-2-2c-0.9-0.6-2.1-1-3.7-1H339h-2.6V63.5z M350.7,87.4c0-3.7-4.8-5.3-14.3-4.9v9.8
		c4.6,0.2,8.1,0,10.6-0.5C349.5,91.3,350.7,89.8,350.7,87.4z"/>
	<path class="st0" d="M409,55.2h-5.7l5.7-27.6h29.1l30.3,88.5h-28L428.1,73l-12.3,43.2h-27.4L409,55.2z"/>
	<path class="st0" d="M521,94.6l-10.9,21.5h-31.4l16.1-26c-5.2-2.5-9.1-6.1-11.8-10.6c-2.6-4.6-4.2-9.5-4.6-14.9
		c-0.3-11.2,1.9-19.5,6.5-24.9c4.7-5.3,9.9-8.6,15.7-9.7c5.8-1.1,12.5-1.6,20.3-1.6h26.5v62.6h7.2l-7.2,25.2H521V94.6z M521,56.7
		h-3.9c-1.9,0-3.3,0.2-4.3,0.5c-2.3,0.2-4,1-5.1,2.3c-1.1,1.3-1.7,2.8-1.7,4.4c0,1.3,0.6,2.6,1.8,4c1.2,1.4,2.9,2.3,5.1,2.7
		c1,0.1,2.4,0.1,4.3,0.1h3.9V56.7z"/>
</g>
<g>
	<g>
		<polygon class="st1" points="49.7,139.6 50.3,130 50.3,108.4 30.6,108.4 30.6,126 30.6,168.3 49.7,168.3 70.4,136.3 69.8,146.3 
			69.8,168.3 88.6,168.3 88.6,150.7 88.6,108.4 70.4,108.4 		"/>
		<path class="st2" d="M89.9,169.6H68.5v-23.3l0.3-5.3l-18.5,28.6h-21v-62.4h22.1V130l-0.3,5.1l18.6-28h20.1V169.6z M71,167.1h16.4
			v-57.5H71.1l-22.9,34.5l0.8-14.2l0-20.3H31.8v57.5H49L72,131.7l-1,14.7L71,167.1z"/>
	</g>
	<g>
		<path class="st1" d="M140.6,138c-2.2-1.1-2.9-1.6-5.2-1.6c3.1-0.7,3.9-1.5,5.6-2.3c1.7-0.9,2.9-2,3.7-3.5c0.7-1.5,1.1-3.6,1.1-6.3
			l0-1.8c0-4.1-1.4-7.3-4.2-9.7c-2.8-2.4-6.1-4-9.9-4.9c-3.8-0.9-7.5-1.3-11-1.3c-7.4,0-13.5,1.7-18.2,5c-4.7,3.4-7,8.3-7,14.8h16.2
			c0-1.8,0.5-3.3,1.5-4.4c1-1.1,3.3-1.7,6.8-1.7c5,0,7.5,1.8,7.5,5.5c0,3.4-2.4,5.1-7.1,5.1h-4.9v11.8c1.5,0,2.7,0,3.8,0.1
			c1,0.1,2.2,0.2,3.5,0.4c1.3,0.2,2.5,0.9,3.6,1.9c1.1,1.1,1.6,2.8,1.6,5.1v0.3v0.3c0,2.2-0.7,3.9-2.2,5.1c-1.5,1.2-3.2,1.8-5.3,1.8
			c-2.3,0-4.2-0.7-5.9-2c-1.7-1.3-2.6-3.1-2.6-5.4h-19c0,4.4,1.1,8,3.3,10.8c2.2,2.8,4.8,4.9,7.9,6.2c1.6,0.7,3.2,1.2,4.6,1.6
			c1.5,0.4,2.9,0.7,4.4,0.9c2.9,0.4,5.4,0.6,7.6,0.6c4.3,0,8.6-0.8,12.9-2.4c4.3-1.6,7.8-3.9,10.6-6.8c2.8-2.9,4.1-6.3,4.1-10
			c0-3.2-0.7-5.9-2.2-8.2C144.7,140.7,142.8,139,140.6,138z"/>
		<path class="st2" d="M120.7,171.7c-2.2,0-4.8-0.2-7.7-0.6c-1.5-0.2-3-0.6-4.5-1c-1.5-0.4-3.1-1-4.8-1.7c-3.3-1.4-6.1-3.6-8.4-6.6
			c-2.3-3-3.5-6.9-3.5-11.6V149h21.4v1.2c0,1.9,0.7,3.4,2.1,4.5c1.5,1.2,3.2,1.7,5.2,1.7c1.8,0,3.3-0.5,4.6-1.5
			c1.2-0.9,1.7-2.3,1.7-4.1v-0.6c0-2-0.4-3.4-1.3-4.2c-0.9-0.9-1.9-1.4-2.9-1.6c-1.3-0.2-2.4-0.3-3.4-0.4c-1-0.1-2.2-0.1-3.7-0.1
			h-1.2v-14.2h6.1c5.2,0,5.9-2.1,5.9-3.9c0-2-0.7-4.3-6.3-4.3c-4.1,0-5.4,0.8-5.8,1.3c-0.8,0.9-1.2,2.1-1.2,3.6v1.2H94.2v-1.2
			c0-6.9,2.5-12.3,7.6-15.8c4.9-3.5,11.3-5.3,18.9-5.3c3.6,0,7.4,0.5,11.3,1.4c4,0.9,7.5,2.7,10.4,5.1c3.1,2.6,4.6,6.2,4.6,10.6
			l0,1.7c0,3-0.4,5.2-1.2,6.9c-0.8,1.7-2.3,3.1-4.2,4.1c-0.7,0.3-1.4,0.7-2.3,1c0.6,0.2,1.2,0.5,1.8,0.7c2.4,1.2,4.5,3,6.1,5.5
			c1.6,2.5,2.4,5.5,2.4,8.9c0,4.1-1.5,7.7-4.5,10.9c-2.9,3.1-6.6,5.5-11,7.1C129.6,170.9,125.1,171.7,120.7,171.7z M94.2,151.5
			c0.2,3.5,1.2,6.5,3,8.8c2,2.6,4.5,4.6,7.4,5.8c1.5,0.6,3.1,1.2,4.5,1.6c1.4,0.4,2.8,0.7,4.2,0.9c2.8,0.4,5.3,0.6,7.4,0.6
			c4.2,0,8.4-0.8,12.5-2.3c4.1-1.5,7.5-3.7,10.1-6.5c2.6-2.7,3.8-5.7,3.8-9.2c0-2.9-0.7-5.5-2-7.5c-1.3-2.1-3.1-3.8-5.1-4.9
			c-2-1.1-2.8-1.5-5.2-2l0-1.1c3.1-1,4.1-1.6,5.8-2.5c1.4-0.8,2.4-2,3-3.3c0.6-1.3,1-3.3,1-5.8l0-1.7c0-3.8-1.2-6.6-3.7-8.8
			c-2.6-2.2-5.8-3.8-9.4-4.6c-3.7-0.9-7.3-1.3-10.7-1.3c-7.1,0-13,1.6-17.5,4.8c-4.1,2.9-6.2,7-6.5,12.6h13.7c0.2-1.6,0.8-2.9,1.8-4
			c1.3-1.4,3.8-2.1,7.7-2.1c7.2,0,8.7,3.7,8.7,6.8c0,2.9-1.4,6.4-8.3,6.4h-3.7v9.3c1,0,1.9,0,2.6,0.1c1.1,0.1,2.3,0.2,3.6,0.4
			c1.6,0.2,3,1,4.3,2.3c1.3,1.3,2,3.3,2,6v0.6c0,2.6-0.9,4.6-2.7,6c-1.7,1.3-3.7,2-6.1,2c-2.5,0-4.8-0.8-6.7-2.3
			c-1.7-1.3-2.7-3.1-3-5.2H94.2z"/>
	</g>
	<g>
		<path class="st1" d="M216.5,138.4c0-2-0.2-4-0.6-6c-0.4-2-0.9-4-1.7-5.9c-1.4-3.8-3.5-7.2-6.3-10.2c-2.8-3-6.2-5.4-10.3-7.2
			c-4.1-1.8-8.7-2.7-13.7-2.7c-2.5,0-4.9,0.3-7.1,0.8c-2.2,0.5-4.4,1.3-6.6,2.2c-4,1.9-7.4,4.3-10.1,7.5c-2.7,3.1-4.8,6.5-6.1,10.3
			c-1.4,3.8-2,7.7-2,11.7c0,4,0.7,7.9,2.1,11.7c1.4,3.8,3.5,7.2,6.2,10.1c2.7,3,6.2,5.3,10.3,7c4.1,1.7,8.8,2.6,14,2.6
			c5.2,0,9.9-0.9,13.9-2.6c4-1.7,7.4-4.1,10.1-7c2.7-3,4.7-6.3,6-10c1.3-3.7,2-7.6,2-11.6V138.4z M192.8,150.7
			c-1.9,3.1-4.7,4.6-8.2,4.6c-3.6,0-6.4-1.5-8.5-4.4c-2.1-2.9-3.1-7.1-3.1-12.5c0-3.6,0.5-6.6,1.6-9.1c1-2.5,2.4-4.3,4.2-5.5
			c1.7-1.2,3.7-1.8,5.9-1.8c1.8,0,3.6,0.6,5.3,1.7c1.7,1.1,3.1,2.8,4.2,5.2c1.1,2.3,1.6,5.3,1.6,8.8
			C195.7,143.3,194.7,147.6,192.8,150.7z"/>
		<path class="st2" d="M184.6,171.5c-5.4,0-10.2-0.9-14.5-2.7c-4.3-1.8-7.9-4.3-10.7-7.3c-2.8-3.1-5-6.6-6.5-10.5
			c-1.4-3.9-2.2-8-2.2-12.1c0-4.1,0.7-8.2,2.1-12.1c1.4-3.9,3.5-7.5,6.4-10.7c2.8-3.2,6.4-5.8,10.5-7.8c2.2-1,4.5-1.8,6.8-2.3
			c2.3-0.5,4.8-0.8,7.4-0.8c5.2,0,10,0.9,14.2,2.8c4.2,1.8,7.8,4.4,10.7,7.5c2.9,3.1,5.1,6.7,6.5,10.6c0.7,2,1.3,4.1,1.7,6.1
			c0.4,2,0.6,4.1,0.6,6.2v0.7c0,4.2-0.7,8.2-2.1,12c-1.4,3.8-3.5,7.3-6.2,10.4c-2.8,3.1-6.3,5.6-10.5,7.4
			C194.8,170.6,189.9,171.5,184.6,171.5z M183.9,107.6c-2.4,0-4.7,0.3-6.8,0.8c-2.1,0.5-4.3,1.2-6.3,2.2c-3.8,1.8-7.1,4.2-9.7,7.1
			c-2.6,3-4.6,6.3-5.9,9.9c-1.3,3.6-2,7.4-2,11.3c0,3.8,0.7,7.6,2,11.3c1.3,3.6,3.3,6.9,6,9.7c2.6,2.8,5.9,5.1,9.9,6.7
			c3.9,1.7,8.5,2.5,13.5,2.5c5,0,9.5-0.8,13.4-2.5c3.9-1.7,7.1-3.9,9.6-6.7c2.6-2.8,4.5-6,5.8-9.6c1.3-3.5,1.9-7.3,1.9-11.2v-0.7
			c0-1.9-0.2-3.8-0.6-5.7c-0.4-1.9-0.9-3.8-1.6-5.7c-1.4-3.6-3.4-6.9-6.1-9.8c-2.6-2.9-6-5.2-9.9-6.9
			C193.3,108.5,188.8,107.6,183.9,107.6z M184.6,156.6c-4,0-7.2-1.7-9.5-4.9c-2.2-3.1-3.4-7.6-3.4-13.3c0-3.7,0.6-6.9,1.7-9.5
			c1.1-2.7,2.7-4.7,4.6-6c3.6-2.4,8.4-2.8,12.6-0.1c1.9,1.2,3.5,3.2,4.6,5.7c1.1,2.5,1.7,5.6,1.7,9.3c0,5.8-1,10.4-3.1,13.7
			C191.7,154.8,188.6,156.6,184.6,156.6z M184.6,123.3c-2,0-3.7,0.5-5.2,1.6c-1.5,1-2.8,2.7-3.7,4.9c-1,2.3-1.5,5.2-1.5,8.6
			c0,5.1,1,9.1,2.9,11.8c1.9,2.6,4.3,3.9,7.5,3.9c3.1,0,5.5-1.3,7.2-4c1.8-2.9,2.7-7,2.7-12.4c0-3.3-0.5-6.1-1.5-8.2
			c-1-2.1-2.2-3.7-3.7-4.7C187.7,123.8,186.2,123.3,184.6,123.3z"/>
	</g>
	<g>
		<path class="st1" d="M228,108.4c0,0.1,0,39.9,0,39.9c0,7.1-4.1,7.7-12.3,7.7l4.1,13.9c2.9,0,10.6,0,10.6,0
			c11.5,0,16.7-5.9,16.7-19.8l0-25.2h16.6v1.2v42.4h19.9v-1.6v-42.3v-16h-13.2H228z"/>
		<path class="st2" d="M230.4,171.1l-11.5,0l-4.8-16.3h1.6c8.7,0,11-0.8,11-6.4c0-39.9,0-40,0-40.2l0.2-1h57.7v62.4h-22.3V126h-14.1
			l0,24C248.3,164.6,242.8,171.1,230.4,171.1z M220.7,168.6l9.6,0c11,0,15.5-5.4,15.5-18.6l0-26.4h19.1v43.5h17.4v-57.5h-53
			c0,4.9,0,26.7,0,38.7c0,7.7-4.6,8.8-11.9,8.9L220.7,168.6z"/>
	</g>
	<g>
		<path class="st1" d="M301.9,111.2c-4.1,1.9-6.9,4.3-8.6,7c-1.6,2.8-2.5,5.6-2.5,8.3c0,3,0.6,5.7,1.7,8.1c1.1,2.4,2.6,4.5,4.6,6.1
			c1.9,1.6,5.5,3.5,9.4,3.5l-20.1,24h23.3l19.1-23.3v23.3H349v-17.7v-42.3h-31.1C311.3,108.4,306,109.3,301.9,111.2z M329.4,123.3
			v10.5h-11.5c-1.7,0-3.1-0.5-4.1-1.6c-1-1.1-1.5-2.3-1.5-3.6c0-1.4,0.6-2.7,1.7-3.7c1.1-1,2.7-1.5,4.8-1.5H329.4z"/>
		<path class="st2" d="M350.3,169.6h-22.7v-21l-17.2,21h-26.6l20.3-24.2c-3.2-0.6-6.1-2.2-7.7-3.6c-2.1-1.8-3.7-3.9-4.9-6.5
			c-1.2-2.6-1.8-5.5-1.8-8.6c0-3,0.9-6,2.6-9c1.8-3,4.8-5.5,9.1-7.5c4.2-2,9.8-3,16.5-3h32.4V169.6z M330,167.1h17.8v-57.5h-29.9
			c-6.4,0-11.5,0.9-15.4,2.8c-3.8,1.8-6.5,4-8,6.5c-1.5,2.6-2.3,5.2-2.3,7.7c0,2.8,0.5,5.4,1.6,7.6c1,2.3,2.5,4.2,4.2,5.7
			c1.9,1.6,5.2,3.2,8.6,3.2h2.6l-20.1,24h20.1l20.9-25.5V167.1z M330.6,135h-12.7c-2.1,0-3.8-0.7-5-2c-1.2-1.3-1.9-2.8-1.9-4.5
			c0-1.8,0.7-3.3,2-4.6c1.3-1.2,3.2-1.9,5.6-1.9h11.9V135z M318.7,124.6c-1.8,0-3.1,0.4-4,1.2c-0.8,0.8-1.3,1.7-1.3,2.8
			c0,1,0.4,1.9,1.2,2.8c0.8,0.8,1.8,1.2,3.2,1.2h10.3v-8H318.7z"/>
	</g>
	<g>
		<polygon class="st1" points="414.7,150.8 414.7,108.6 394.6,108.6 394.6,109.2 394.6,151.5 377.3,151.5 377.3,150.8 377.3,108.6 
			356.8,108.6 356.8,126.2 356.8,168.5 358.5,168.5 400.8,168.5 400.8,179.4 421.4,179.5 421.4,151.5 414.7,151.5 		"/>
		<path class="st2" d="M422.7,180.7l-23.1-0.1v-10.9h-44.1v-62.4h22.9v43h14.9v-43h22.5v43h6.8V180.7z M402.1,178.2l18.1,0.1v-25.5
			h-6.8v-43h-17.6v43H376v-43h-18v57.5h44.1V178.2z"/>
	</g>
	<g>
		<polygon class="st1" points="445.6,139.6 446.2,130 446.2,108.4 426.5,108.4 426.5,126 426.5,168.3 445.6,168.3 466.3,136.3 
			465.7,146.3 465.7,168.3 484.5,168.3 484.5,150.7 484.5,108.4 466.3,108.4 		"/>
		<path class="st2" d="M485.8,169.6h-21.3v-23.3l0.3-5.3l-18.5,28.6h-21v-62.4h22.1V130l-0.3,5.1l18.6-28h20.1V169.6z M466.9,167.1
			h16.4v-57.5H467l-22.9,34.5l0.8-14.2l0-20.3h-17.2v57.5h17.2l22.9-35.4l-1,14.7L466.9,167.1z"/>
	</g>
	<g>
		<path class="st1" d="M517.8,108.4c-6.6,0-11.9,1-16,2.9c-4.1,1.9-6.9,4.3-8.6,7c-1.6,2.8-2.5,5.6-2.5,8.3c0,3,0.6,5.7,1.7,8.1
			c1.1,2.4,2.6,4.5,4.6,6.1c1.9,1.6,5.5,3.5,9.4,3.5l-18.8,24h23.3l17.8-23.3v23.3h20.2v-17.7v-42.3H517.8z M529.3,133.8h-11.5
			c-1.7,0-3.1-0.5-4.1-1.6c-1-1.1-1.5-2.3-1.5-3.6c0-1.4,0.6-2.7,1.7-3.7c1.1-1,2.7-1.5,4.8-1.5h10.7V133.8z"/>
		<path class="st2" d="M550.2,169.6h-22.7v-20.9l-15.9,20.9H485l19-24.2c-3.3-0.6-6.1-2.2-7.8-3.6c-2.1-1.8-3.7-3.9-4.9-6.5
			c-1.2-2.6-1.8-5.5-1.8-8.6c0-3,0.9-6,2.6-9c1.8-3,4.8-5.5,9.1-7.5c4.2-2,9.8-3,16.5-3h32.4V169.6z M529.9,167.1h17.8v-57.5h-29.9
			c-6.4,0-11.5,0.9-15.4,2.8c-3.8,1.8-6.5,4-8,6.5c-1.5,2.6-2.3,5.2-2.3,7.7c0,2.8,0.5,5.4,1.6,7.6c1,2.3,2.5,4.2,4.2,5.7
			c1.9,1.6,5.2,3.2,8.6,3.2h2.5l-18.8,24h20.2l19.6-25.7V167.1z M530.5,135h-12.7c-2.1,0-3.8-0.7-5-2c-1.2-1.3-1.9-2.8-1.9-4.5
			c0-1.8,0.7-3.3,2-4.6c1.3-1.2,3.2-1.9,5.6-1.9h11.9V135z M518.6,124.6c-1.8,0-3.1,0.4-4,1.2c-0.8,0.8-1.3,1.7-1.3,2.8
			c0,1,0.4,1.9,1.2,2.8c0.8,0.8,1.8,1.2,3.2,1.2h10.3v-8H518.6z"/>
	</g>
</g>
</svg>
